<?xml version="1.0" encoding="utf-8"?>
<!-- Generator: Adobe Illustrator 27.5.0, SVG Export Plug-In . SVG Version: 6.00 Build 0)  -->
<svg version="1.1" id="svg24811" xmlns:svg="http://www.w3.org/2000/svg"
	 xmlns="http://www.w3.org/2000/svg" xmlns:xlink="http://www.w3.org/1999/xlink" x="0px" y="0px" viewBox="0 0 2591.4 2591.4"
	 style="enable-background:new 0 0 2591.4 2591.4;" xml:space="preserve">
<style type="text/css">
	.st0{fill:#90CF87;}
	.st1{fill:#27941B;}
</style>
<path class="st0" d="M1295.7,2558.4c-170.4,0-335.8-33.4-491.5-99.3c-74.8-31.7-147-70.8-214.5-116.4
	c-66.8-45.2-129.7-97-186.8-154.1c-57.1-57.1-109-120-154.1-186.8c-45.6-67.5-84.8-139.7-116.4-214.5
	c-65.9-155.7-99.3-321.1-99.3-491.5s33.4-335.8,99.3-491.5c31.7-74.8,70.8-147,116.4-214.5c45.2-66.8,97-129.7,154.1-186.8
	c57.1-57.1,120-109,186.8-154.1c67.5-45.6,139.7-84.8,214.5-116.4c155.7-65.9,321.1-99.3,491.5-99.3s335.8,33.4,491.5,99.3
	c74.8,31.7,147,70.8,214.5,116.4c66.8,45.2,129.7,97,186.8,154.1c57.1,57.1,109,120,154.1,186.8c45.6,67.5,84.8,139.7,116.4,214.5
	c65.9,155.7,99.3,321.1,99.3,491.5s-33.4,335.8-99.3,491.5c-31.7,74.8-70.8,147-116.4,214.5c-45.2,66.8-97,129.7-154.1,186.8
	c-57.1,57.1-120,109-186.8,154.1c-67.5,45.6-139.7,84.8-214.5,116.4C1631.5,2525,1466.1,2558.4,1295.7,2558.4z M1295.7,208.1
	C696,208.1,208.1,696,208.1,1295.7S696,2383.4,1295.7,2383.4s1087.7-487.9,1087.7-1087.7S1895.4,208.1,1295.7,208.1z"/>
<path class="st1" d="M1957.3,1969.7c0,13.9-3.1,22.7-8.8,25.7c-2.7,2-11.8,3.7-27.8,5.1c-40.3,4.1-96.9,6.1-170.5,6.1
	c-103.4,0-164.4-2-182.7-6.1c-18-4.1-27.1-12.9-27.1-26.8c0-52.2,2.4-130.8,7.1-235.9c4.8-105.1,7.1-183.3,7.1-235.9
	c0-25.8-7.1-40.6-21.7-44.7c-22.7-5.1-102.7-7.8-240.6-7.8c-138.6,0-219.3,2.7-242.3,7.8c-14.6,3.4-22,18.3-22,44.7
	c0,51.9,1.7,129.2,5.1,231.8c3.4,103.1,5.1,180.3,5.1,231.8c0,20-8.8,31.5-26.7,34.9c-21.4,4.1-83.4,6.1-186.8,6.1
	c-89.1,0-146.1-2-170.4-6.1c-19.3-3.4-28.8-13.6-28.8-30.8c0-71.5,3.4-179.3,10.1-323.7c6.8-144,10.2-252.5,10.2-324.6
	c0-76.6-3.4-191.8-10.2-345.7c-6.7-153.8-10.1-269.4-10.1-346c0-14.6,7.1-22,21-22c20.3,0,51.1,1,92.5,3c41.4,2.1,72.5,3.1,92.9,3.1
	c21.3,0,53.2-1,95.9-3.1c42.7-2,74.5-3,95.5-3c11.2,0,17,6.1,17,18c0,49.8-3.4,124-10.2,223c-6.7,98.9-10.1,173.2-10.1,222.6
	c0,23.4,6.4,37,19,41c17,5.1,101.7,7.8,253.8,7.8c141.7,0,223.7-2.7,246.4-7.8c15.9-4.1,23.7-17.7,23.7-41
	c0-47.4-2.4-119.6-7.1-215.9c-4.7-96.2-7.1-168.4-7.1-216.9c0-20.3,8.1-30.8,24.7-30.8c19.4,0,48.5,1,87.8,3
	c39.3,2.1,69.1,3.1,88.8,3.1c19.3,0,48.4-1,87.8-3.1c39.3-2,69.1-3,88.8-3c19.4,0,28.8,8.1,28.8,24c0,75.9-3,190.8-9.2,344.3
	c-6.1,153.5-9.2,268.7-9.2,345.3c0,72.2,3.4,180.6,10.1,324.6C1953.9,1790.4,1957.3,1898.2,1957.3,1969.7L1957.3,1969.7z"/>
</svg>
